<svg width="535" height="565" viewBox="0 0 535 565" fill="none" xmlns="http://www.w3.org/2000/svg">
<path fill-rule="evenodd" clip-rule="evenodd" d="M228.413 2.11824C216.006 3.97024 212.005 4.94824 188.913 11.7722C167.516 18.0962 140.946 30.6252 120.913 43.8382C97.7847 59.0932 72.8987 82.6872 56.9457 104.485C55.3357 106.685 53.7447 108.71 53.4107 108.985C53.0767 109.26 50.1727 113.76 46.9577 118.985C43.7417 124.21 39.6487 130.735 37.8607 133.485C36.0737 136.235 33.6057 140.735 32.3777 143.485C31.1497 146.235 28.8137 151.185 27.1857 154.485C25.5587 157.785 23.1847 163.41 21.9117 166.985C20.6377 170.56 18.4107 176.635 16.9627 180.485C13.8817 188.676 8.00569 210.247 5.93169 220.985C0.847693 247.297 0.100699 254.996 0.00569861 281.985C-0.0933014 310.231 1.0637 322.481 6.1457 346.985C8.8657 360.103 16.9487 387.212 20.9047 396.485C26.1627 408.813 34.7887 426.161 38.0497 430.967C39.3497 432.882 40.4127 434.838 40.4127 435.314C40.4127 436.609 56.2507 459.553 63.0567 468.118C69.7817 476.58 90.2987 497.692 96.9427 502.985C109.017 512.605 117.506 518.918 123.201 522.514C126.66 524.698 131.61 527.857 134.201 529.534C141.534 534.279 164.97 545.474 174.702 548.88C179.536 550.572 184.28 552.378 185.244 552.895C186.209 553.411 193.279 555.46 200.955 557.449C228.359 564.549 262.086 566.45 292.413 562.604C303.493 561.199 326.463 555.643 331.913 553.049C333.013 552.526 338.346 550.283 343.764 548.065C349.181 545.847 355.826 542.672 358.529 541.009C361.232 539.346 363.7 537.985 364.015 537.985C364.914 537.985 373.174 532.069 381.913 525.165C393.231 516.224 404.247 505.34 411.908 495.528C419.013 486.429 421.481 484.832 424.381 487.456C425.812 488.751 426.358 491.31 426.909 499.296C428.154 517.331 430.851 525.208 439.732 536.749C446.821 545.962 459.221 552.943 472.345 555.111C481.375 556.602 491.932 555.075 502.248 550.784C515.68 545.198 527.288 531.631 532.466 515.468C534.397 509.441 534.758 51.4702 532.84 41.7042C528.056 17.3552 506.432 -0.0747589 481.098 0.000241107C473.904 0.0222411 461.152 3.41324 455.033 6.93124C449.209 10.2812 439.864 19.4952 436.092 25.6092C431.623 32.8522 429.355 42.4032 429.123 54.9632C429.003 61.4752 428.486 66.4502 427.913 66.6252C427.363 66.7922 423.763 63.1962 419.913 58.6332C399.315 34.2212 370.143 17.2132 331.413 7.03524C309.898 1.38124 297.021 -0.0077589 267.413 0.129241C247.191 0.223241 237.952 0.694241 228.413 2.11824ZM246.913 102.082C211.054 107.748 176.704 125.778 151.049 152.4C125.6 178.809 109.56 210.864 102.721 248.985C100.534 261.172 100.113 266.516 100.082 282.485C100.016 315.444 105.153 339.067 118.381 366.646C140.741 413.266 181.085 446.486 230.413 458.895C245.696 462.74 256.711 463.979 275.633 463.982C301.955 463.987 319.29 460.626 341.396 451.231C358.889 443.797 380.236 429.079 393.438 415.35C406.12 402.163 410.017 392.321 408.367 377.646C407.354 368.636 404.615 362.208 398.99 355.637C389.994 345.129 376.147 339.742 363.259 341.737C353.963 343.176 347.022 346.736 338.753 354.305C326.001 365.978 318.896 370.231 302.413 376.059C293.057 379.367 292.655 379.418 275.913 379.416C259.916 379.415 258.411 379.247 250.413 376.582C238.294 372.542 230.184 368.202 219.887 360.244C202.72 346.977 191.003 329.314 185.218 307.985C183.197 300.534 182.92 297.264 182.968 281.485C183.019 264.852 183.229 262.818 185.724 254.701C191.166 236.997 198.291 224.61 210.091 212.338C234.236 187.226 272.38 177.526 303.631 188.549C316.435 193.066 324.754 198.006 335.622 207.548C339.082 210.586 345.265 214.739 349.361 216.778C356.302 220.232 357.426 220.485 365.861 220.485C373.949 220.485 375.624 220.148 381.593 217.32C401.442 207.917 410.832 187.361 404.529 167.11C401.714 158.067 398.274 152.947 389.678 145.01C370.646 127.438 344.533 112.585 321.259 106.095C299.251 99.9572 270.262 98.3932 246.913 102.082Z" fill="#58DC58"/>
</svg>
